<mxfile host="app.diagrams.net" modified="2024-07-28T07:31:19.063Z" agent="Mozilla/5.0 (X11; Ubuntu; Linux x86_64; rv:128.0) Gecko/20100101 Firefox/128.0" version="21.7.5" etag="rw5bvzmfQxwWMLPG6Yon" type="github">
  <diagram name="Page-1" id="f7jGh3RXOu_0N1KnW59O">
    <mxGraphModel>
      <root>
        <mxCell id="0" />
        <mxCell id="1" parent="0" />
      </root>
    </mxGraphModel>
  </diagram>
</mxfile>
